# xmcd CD database generated by RipIT
#
# Track frame offsets:
# 150
# 14852
# 37837
# 48430
#
# Disc length: 906 seconds
#
# Revision: 2
# Processed by: cddbd v1.5.2PL0 Copyright (c) Steve Scherf et al.
# Submitted via: RipIT 3.7.0-beta20081019 www.suwald.com/ripit/ripit.html on 2008-12-17 at 22:35
#
DISCID=2c038804
DTITLE=Laakso - Long Beach EP
DYEAR=2003
DGENRE=
TTITLE0=Long Beach
TTITLE1=Out of Taste
TTITLE2=Aino
TTITLE3=Vesi
EXTD=
EXTT0=
EXTT1=
EXTT2=
EXTT3=
PLAYORDER=
